<svg width="22" height="22" viewBox="0 0 24 24" fill="none" xmlns="http://www.w3.org/2000/svg">
<path d="M13.9497 12.5355C13.5592 12.145 12.9261 12.145 12.5355 12.5355C12.145 12.9261 12.145 13.5592 12.5355 13.9497L13.9497 12.5355ZM19.2929 20.7071C19.6834 21.0976 20.3166 21.0976 20.7071 20.7071C21.0976 20.3166 21.0976 19.6834 20.7071 19.2929L19.2929 20.7071ZM14 9C14 11.7614 11.7614 14 9 14V16C12.866 16 16 12.866 16 9H14ZM9 14C6.23858 14 4 11.7614 4 9H2C2 12.866 5.13401 16 9 16V14ZM4 9C4 6.23858 6.23858 4 9 4V2C5.13401 2 2 5.13401 2 9H4ZM9 4C11.7614 4 14 6.23858 14 9H16C16 5.13401 12.866 2 9 2V4ZM12.5355 13.9497L19.2929 20.7071L20.7071 19.2929L13.9497 12.5355L12.5355 13.9497Z" fill="#7B7F98"/>
</svg>
